# xmcd
#
# Track frame offsets:
#	150
#	7586
#	20129
#	28324
#	36946
#	45682
#	58297
#	69076
#	78740
#	90393
#	101290
#	112161
#	121739
#	133183
#	143398
#	154271
#	166277
#	175349
#	185459
#	199496
#	213745
#	222364
#	233386
#	245101
#
# Disc length: 3395 seconds
#
# Revision: 0
# Processed by: cddbd v1.4PL0 Copyright (c) Steve Scherf et al.
# Submitted via: dBpowerAMP V4.0
#
DISCID=550d4118
DTITLE=Various Artist - Hit Standards Bluegrass Style
DYEAR=1900
DGENRE=Bluegrass
TTITLE0=Blue Blue Day - Nashville Acoustic Al-Stars
TTITLE1=Blue Eyes Crying In The Rain - Nashville Acoustic Al-Stars
TTITLE2=Chug A Lug - Nashville Acoustic Al-Stars
TTITLE3=Crazy - Nashville Acoustic Al-Stars
TTITLE4=Games People Play - Nashville Acoustic Al-Stars
TTITLE5=He Stopped Loving Her Today - Nashville Acoustic Al-Stars
TTITLE6=Hey Good Lookin' - Nashville Acoustic Al-Stars
TTITLE7=I'm So Lonesome I Could Cry - Nashville Acoustic Al-Stars
TTITLE8=I Can't Stop Loving You - Nashville Acoustic Al-Stars
TTITLE9=I Fall To Pieces - Nashville Acoustic Al-Stars
TTITLE10=I Saw The Light - Nashville Acoustic Al-Stars
TTITLE11=Jambalaya - Nashville Acoustic Al-Stars
TTITLE12=King Of The Road - Nashville Acoustic Al-Stars
TTITLE13=Last Date - Nashville Acoustic Al-Stars
TTITLE14=Lesson In Leavin' - Nashville Acoustic Al-Stars
TTITLE15=Making Believe - Nashville Acoustic Al-Stars
TTITLE16=Oh, Lonesome Me - Nashville Acoustic Al-Stars
TTITLE17=Pop A Top - Nashville Acoustic Al-Stars
TTITLE18=Sweet Dreams - Nashville Acoustic Al-Stars
TTITLE19=Tennessee Waltz - Nashville Acoustic All-Stars
TTITLE20=Walkin' After Midnight - Nashville Acoustic Al-Stars
TTITLE21=Walk On By - Nashville Acoustic Al-Stars
TTITLE22=Young Love - Nashville Acoustic Al-Stars
TTITLE23=Your Cheatin' Heart - Nashville Acoustic Al-Stars
EXTD=Typo in Artist name corrected to "Nashville Acoustic All-Stars"
EXTT0=
EXTT1=
EXTT2=
EXTT3=
EXTT4=
EXTT5=
EXTT6=
EXTT7=
EXTT8=
EXTT9=
EXTT10=
EXTT11=
EXTT12=
EXTT13=
EXTT14=
EXTT15=
EXTT16=
EXTT17=
EXTT18=
EXTT19=
EXTT20=
EXTT21=
EXTT22=
EXTT23=
PLAYORDER=
